# xmcd
# 
# Track frame offsets:
#     150
#     4405
#     21450
#     25615
#     42160
#     68225
#     74950
#     96442
#     109779
#     121285
#     136062
#     153175
#     161400
#     174337
#     183295
#     190840
#     212112
#     217505
#     229045
#     233775
#     247384
#     264642
#     278415
#     292915
#     299095
#     314492
# 
# Disc length: 4283
# 
# Revision: 1
# Processed by: cddbd v1.5.2PL0 Copyright (c) Steve Scherf et al.
# Submitted via: BonkEnc v1.0.15
# 
DISCID=7e10b91a
DTITLE=Various Artist - Slide Guitar Classics
DYEAR=1999
DGENRE=Blues
TTITLE0=小出斉 - Koide's Comments 01
TTITLE1=Robert Nighthawk - I'm Getting Tired
TTITLE2=小出斉 - Koide's Comments 02
TTITLE3=Earl Hooker - Dust My Broom
TTITLE4=Earl Hooker feat. Fred Roulett - Two Bags In A rug
TTITLE5=小出斉 - Koide's Comments 03
TTITLE6=Muddy Waters - Honey Bee
TTITLE7=Junior Brooks - She's A Little Girl
TTITLE8=小出斉 - Koide's Comments 04
TTITLE9=Elmore James - Wild About You Baby
TTITLE10=J.B.Hutto - Come On Back Home
TTITLE11=小出斉 - Koide's Comments 05
TTITLE12=Charly Patton - Some Summer Day
TTITLE13=Arthur Weston - Poor Boy long Way Home
TTITLE14=小出斉 - Koide's Comments 06
TTITLE15=Mississippi Fred McDowell - Going Down The River
TTITLE16=小出斉 - Koide's Comments 07
TTITLE17=Robert Jr. Lockwood - Walkin' Blues
TTITLE18=小出斉 - Koide's Comments 08
TTITLE19=Ramblin' Thomas - New Way Of Living
TTITLE20=小出斉 - Koide's Comments 09
TTITLE21=Kokomo Arnold - Back To the Woods
TTITLE22=Casey Bill Weldon - Midnight Blues
TTITLE23=小出斉 - Koide's Comments 10
TTITLE24=Tampa Red - Black Angel Blues
TTITLE25=小出斉 - Koide's Comments 11
EXTD=
EXTT0=
EXTT1=
EXTT2=
EXTT3=
EXTT4=
EXTT5=
EXTT6=
EXTT7=
EXTT8=
EXTT9=
EXTT10=
EXTT11=
EXTT12=
EXTT13=
EXTT14=
EXTT15=
EXTT16=
EXTT17=
EXTT18=
EXTT19=
EXTT20=
EXTT21=
EXTT22=
EXTT23=
EXTT24=
EXTT25=
PLAYORDER=
